<svg xmlns="http://www.w3.org/2000/svg" style="width:0; height:0; visibility:hidden;">
    <symbol id="icon_handshake" viewBox="0 0 264.355 264.355">
       <g> <path d="m259.081,76.652l-53.812-53.812c-3.407-3.407-7.936-5.283-12.754-5.283s-9.347,1.876-12.753,5.283l-12.646,12.645c-1.946,1.946-3.333,4.235-4.203,6.67l-59.168-10.593c-0.004-0.001-0.009-0.001-0.013-0.002-26.604-5.281-52.579,12.015-57.944,38.622l-2.729,13.537c-3.014,14.949 6.697,29.562 21.646,32.576 14.95,3.012 29.563-6.697 32.577-21.646l1.668-8.278 26.533,2.32 69.29,69.29 12.558,12.558c2.543,2.543 2.542,6.681 0,9.224-2.542,2.542-6.68,2.543-9.223,0l-33.639-33.639c-2.343-2.343-6.143-2.343-8.485,0-2.343,2.343-2.343,6.142 0,8.485l33.639,33.639c1.232,1.232 1.91,2.87 1.91,4.612 0,1.742-0.678,3.379-1.91,4.611-2.544,2.543-6.681,2.542-9.223,0l-33.639-33.639c-2.343-2.343-6.143-2.343-8.485,0-2.343,2.343-2.343,6.142 0,8.485l33.639,33.639c2.543,2.542 2.543,6.68 0,9.223-1.232,1.232-2.87,1.91-4.611,1.91-1.742,0-3.38-0.678-4.612-1.91l-33.639-33.639c-2.343-2.343-6.143-2.343-8.485,0-2.343,2.343-2.343,6.142 0,8.485l33.639,33.639c2.543,2.543 2.542,6.681 0,9.224-2.542,2.542-6.68,2.543-9.223,0l-119.023-119.021-15.718-15.718c-2.343-2.343-6.143-2.343-8.485,0-2.343,2.343-2.343,6.142 0,8.485l15.718,15.718 17.105,17.105-9.429,9.429c-3.087,3.087-4.788,7.192-4.788,11.559 0,4.367 1.7,8.472 4.788,11.559l3.077,3.077c2.699,2.699 6.176,4.337 9.925,4.707 0.37,3.749 2.008,7.226 4.707,9.924l3.077,3.078c2.771,2.771 6.298,4.334 9.923,4.695 0.367,3.753 2.007,7.235 4.709,9.936l3.077,3.077c2.699,2.699 6.176,4.337 9.925,4.707 0.37,3.749 2.008,7.226 4.707,9.925l3.077,3.077c3.187,3.187 7.373,4.78 11.559,4.78s8.372-1.593 11.559-4.78l9.429-9.429 22.595,22.595c3.499,3.499 8.15,5.425 13.097,5.425s9.599-1.927 13.097-5.425c3.314-3.314 5.196-7.667 5.387-12.321 4.655-0.191 9.007-2.073 12.322-5.387 3.416-3.416 5.195-7.845 5.38-12.329 4.483-0.185 8.913-1.964 12.328-5.379 3.416-3.416 5.195-7.845 5.38-12.329 4.484-0.185 8.914-1.964 12.329-5.38 7.222-7.222 7.222-18.972 0-26.194l-8.315-8.315 30.423-30.423 21.156-21.156c7.031-7.033 7.031-18.476-0.001-25.508zm-225.444,86.866c-1.695-1.695-1.695-4.452 0-6.147l8.842-8.842 9.224,9.224-8.842,8.842c-1.694,1.695-4.453,1.694-6.147,0l-3.077-3.077zm17.709,17.709c-1.695-1.695-1.695-4.452 0-6.146l8.842-8.842 9.224,9.224-8.841,8.842c-1.695,1.694-4.454,1.695-6.147,0l-3.078-3.078zm17.708,17.709c-0.821-0.821-1.273-1.913-1.273-3.073s0.452-2.252 1.273-3.073l8.842-8.842 9.223,9.223-8.842,8.842c-1.694,1.694-4.452,1.694-6.146,0l-3.077-3.077zm26.933,20.786c-1.694,1.695-4.453,1.694-6.147,0l-3.077-3.077c-1.695-1.695-1.695-4.452 0-6.147l8.842-8.842 9.224,9.224-8.842,8.842zm103.029-74.469l-66.592-66.592c-0.998-0.998-2.314-1.612-3.72-1.734l-34.053-2.977c-0.177-0.016-0.353-0.023-0.527-0.023-2.829,0-5.308,1.995-5.877,4.815l-2.729,13.537c-1.706,8.462-9.974,13.958-18.442,12.253-4.099-0.826-7.632-3.2-9.946-6.683-2.314-3.483-3.134-7.659-2.307-11.759l2.729-13.536c4.066-20.169 23.774-33.275 43.951-29.204 0.042,0.008 0.085,0.017 0.128,0.024l58.306,10.439 7.179,7.179 58.081,58.081-26.181,26.18zm51.579-51.579l-16.914,16.914-58.081-58.081c-1.14-1.14-1.768-2.656-1.768-4.269s0.628-3.128 1.768-4.269l12.646-12.646c1.14-1.14 2.656-1.768 4.268-1.768s3.128,0.628 4.269,1.768l53.812,53.812c1.14,1.14 1.768,2.656 1.768,4.269s-0.628,3.13-1.768,4.27z"/> <circle cx="236.071" cy="91.787" r="6"/> </g> 
    </symbol>
    <symbol id="icon_magnifying-glass" viewBox="0 0 512 512">
       <g> <path d="M495,466.2L377.2,348.4c29.2-35.6,46.8-81.2,46.8-130.9C424,103.5,331.5,11,217.5,11C103.4,11,11,103.5,11,217.5   S103.4,424,217.5,424c49.7,0,95.2-17.5,130.8-46.7L466.1,495c8,8,20.9,8,28.9,0C503,487.1,503,474.1,495,466.2z M217.5,382.9   C126.2,382.9,52,308.7,52,217.5S126.2,52,217.5,52C308.7,52,383,126.3,383,217.5S308.7,382.9,217.5,382.9z"/> </g> 
    </symbol>
    <symbol id="icon_medal" viewBox="0 0 511.999 511.999">
       <g> <g> <path d="M321.356,63.796c-56.318-28.458-124.159-17.577-168.81,27.075c-51.895,51.894-57.089,134.64-12.081,192.474
			c1.591,2.044,3.969,3.114,6.373,3.114c1.732,0,3.477-0.555,4.95-1.702c3.517-2.737,4.149-7.806,1.413-11.323
			c-40.019-51.422-35.394-125.002,10.757-171.153c39.71-39.712,100.038-49.39,150.122-24.083c3.976,2.012,8.83,0.414,10.84-3.563
			C326.929,70.658,325.335,65.805,321.356,63.796z"/> </g> </g> <g> <g> <path d="M385.787,128.239c-2.01-3.977-6.861-5.573-10.841-3.565c-3.977,2.009-5.574,6.861-3.565,10.84
			c25.289,50.076,15.606,110.396-24.095,150.096c-46.152,46.15-119.731,50.774-171.153,10.757
			c-3.518-2.736-8.586-2.104-11.323,1.412c-2.737,3.517-2.104,8.586,1.413,11.323c26.344,20.502,57.855,30.586,89.266,30.586
			c37.547,0,74.952-14.411,103.209-42.668C403.339,252.38,414.225,184.552,385.787,128.239z"/> </g> </g> <g> <g> <path d="M364.94,97.508c-1.999-2.262-4.099-4.496-6.242-6.638c-2.143-2.143-4.376-4.243-6.638-6.242
			c-3.339-2.952-8.439-2.636-11.388,0.703c-2.953,3.338-2.639,8.437,0.7,11.388c2.015,1.78,4.005,3.652,5.915,5.561
			c1.908,1.91,3.78,3.899,5.561,5.914c1.594,1.804,3.816,2.725,6.049,2.725c1.899,0,3.805-0.667,5.34-2.023
			C367.577,105.946,367.891,100.847,364.94,97.508z"/> </g> </g> <g> <g> <path d="M446.066,208.41c5.38-8.827,5.38-19.791-0.002-28.616l-10.615-17.407c-1.398-2.294-1.939-5.018-1.521-7.67l3.164-20.103
			c1.613-10.245-2.596-20.398-10.982-26.499l-16.451-11.966c-2.175-1.583-3.721-3.892-4.354-6.506l-4.791-19.799
			c-2.432-10.057-10.191-17.815-20.247-20.249l-19.8-4.792c-2.614-0.633-4.925-2.179-6.506-4.354l-11.968-16.455
			c-6.1-8.386-16.254-12.597-26.496-10.983l-20.11,3.164c-2.652,0.417-5.377-0.123-7.669-1.521L270.308,4.036
			c-8.826-5.382-19.79-5.381-28.616,0l-17.408,10.615c-2.292,1.399-5.015,1.937-7.67,1.521l-20.104-3.164
			c-10.242-1.612-20.397,2.597-26.497,10.983l-11.966,16.451c-1.583,2.175-3.893,3.721-6.508,4.354l-19.799,4.791
			c-10.055,2.432-17.815,10.191-20.249,20.247l-4.792,19.8c-0.633,2.614-2.178,4.925-4.354,6.506L85.89,108.108
			c-8.386,6.099-12.594,16.251-10.983,26.496l3.164,20.111c0.417,2.653-0.123,5.377-1.521,7.669l-10.617,17.411
			c-5.38,8.826-5.38,19.79,0.001,28.615l10.615,17.408c1.398,2.294,1.939,5.018,1.521,7.67l-3.164,20.104
			c-1.613,10.244,2.596,20.398,10.982,26.498l16.451,11.966c2.175,1.581,3.721,3.892,4.354,6.506l4.791,19.799
			c2.432,10.057,10.191,17.815,20.247,20.249l8.268,2.001L84.045,465.425c-1.189,2.653-0.86,5.739,0.863,8.081
			c1.722,2.342,4.569,3.577,7.457,3.231l45.022-5.383l25.936,37.191c1.518,2.175,3.995,3.453,6.616,3.453
			c0.251,0,0.505-0.012,0.757-0.035c2.894-0.272,5.419-2.081,6.608-4.732l57.145-127.479l7.241,4.415
			c4.413,2.691,9.36,4.036,14.308,4.036c4.948,0,9.895-1.346,14.308-4.036l7.502-4.574l57.217,127.638
			c1.189,2.653,3.713,4.46,6.608,4.732c0.253,0.024,0.506,0.036,0.757,0.036c2.621,0,5.099-1.278,6.616-3.453l25.936-37.191
			l45.022,5.383c2.886,0.343,5.735-0.889,7.457-3.231c1.722-2.342,2.053-5.428,0.863-8.081l-55.983-124.883l7.957-1.925
			c10.055-2.432,17.815-10.191,20.249-20.247l4.792-19.8c0.633-2.614,2.179-4.925,4.354-6.506l16.455-11.968
			c8.386-6.099,12.594-16.251,10.983-26.496l-3.164-20.111c-0.417-2.653,0.123-5.377,1.521-7.669L446.066,208.41z M168.408,487.627
			l-20.554-29.474c-1.704-2.444-4.618-3.752-7.576-3.396l-35.679,4.266L155.578,345.3c0.932,0.685,1.768,1.506,2.457,2.455
			l11.968,16.455c1.137,1.563,2.415,2.98,3.808,4.242l-26.833,59.857c-1.822,4.067-0.004,8.84,4.062,10.663
			c1.072,0.481,2.193,0.708,3.295,0.708c3.082,0,6.026-1.776,7.367-4.77l26.738-59.644c2.631,0.361,5.34,0.355,8.059-0.073
			l20.11-3.164c1.204-0.189,2.421-0.172,3.606,0.024L168.408,487.627z M407.732,459.021l-35.68-4.264
			c-2.961-0.355-5.872,0.952-7.576,3.396l-20.554,29.474l-51.829-115.619c1.087-0.148,2.196-0.148,3.293,0.024l20.103,3.164
			c2.829,0.445,5.648,0.431,8.379,0.024l26.758,59.692c1.343,2.995,4.285,4.77,7.367,4.77c1.103,0,2.224-0.227,3.295-0.708
			c4.066-1.822,5.885-6.597,4.062-10.663l-26.935-60.085c1.299-1.206,2.5-2.541,3.571-4.013l11.966-16.451
			c0.754-1.037,1.678-1.926,2.716-2.645L407.732,459.021z M432.287,200.008l-10.617,17.411c-3.385,5.554-4.695,12.152-3.684,18.578
			l3.164,20.11c0.665,4.229-1.073,8.42-4.534,10.938l-16.456,11.969c-5.267,3.832-9.013,9.429-10.545,15.76l-4.792,19.8
			c-1.005,4.151-4.207,7.354-8.359,8.359l-19.8,4.791c-6.332,1.532-11.93,5.278-15.762,10.546l-11.966,16.451
			c-2.518,3.463-6.708,5.199-10.939,4.533l-20.104-3.164c-6.427-1.011-13.026,0.297-18.581,3.684l-17.407,10.615
			c-3.643,2.22-8.171,2.22-11.812,0l-17.411-10.616c-4.33-2.641-9.294-4.017-14.317-4.017c-1.42,0-2.847,0.11-4.262,0.333
			l-20.111,3.164c-4.23,0.666-8.42-1.073-10.938-4.534l-11.969-16.455c-3.832-5.267-9.429-9.013-15.76-10.545l-19.8-4.792
			c-4.151-1.005-7.354-4.207-8.359-8.359l-4.791-19.799c-1.532-6.332-5.277-11.931-10.546-15.763l-16.45-11.967
			c-3.462-2.518-5.199-6.71-4.533-10.939l3.164-20.104c1.011-6.427-0.297-13.025-3.684-18.58l-10.615-17.409
			c-2.221-3.643-2.221-8.17,0-11.812l10.617-17.411c3.386-5.554,4.695-12.152,3.684-18.578l-3.164-20.11
			c-0.665-4.229,1.073-8.42,4.534-10.938l16.456-11.969c5.267-3.832,9.013-9.429,10.545-15.76l4.792-19.8
			c1.005-4.151,4.207-7.354,8.359-8.359l19.8-4.791c6.332-1.532,11.93-5.278,15.761-10.546l11.966-16.451
			c2.518-3.462,6.708-5.201,10.939-4.534l20.104,3.164c6.428,1.013,13.027-0.297,18.581-3.684l17.407-10.615
			c3.643-2.22,8.171-2.22,11.812,0l17.411,10.616c5.554,3.388,12.154,4.697,18.579,3.685l20.111-3.164
			c4.228-0.663,8.42,1.073,10.938,4.534l11.969,16.455c3.832,5.267,9.429,9.013,15.76,10.545l19.8,4.792
			c4.151,1.005,7.354,4.207,8.359,8.359l4.791,19.799c1.532,6.332,5.277,11.931,10.546,15.763l16.451,11.966
			c3.462,2.518,5.199,6.71,4.533,10.939l-3.164,20.104c-1.011,6.427,0.297,13.025,3.684,18.58l10.615,17.409
			C434.509,191.838,434.509,196.365,432.287,200.008z"/> </g> </g> <g> <g> <path d="M350.416,168.997c-1.778-5.474-6.433-9.296-12.149-9.974l-48.551-5.757l-20.478-44.395
			c-2.411-5.226-7.484-8.473-13.24-8.473c-5.755,0-10.829,3.247-13.24,8.473l-20.478,44.396l-48.551,5.757
			c-5.716,0.678-10.372,4.5-12.149,9.974c-1.778,5.471-0.258,11.3,3.966,15.207l35.895,33.195l-9.528,47.954
			c-1.121,5.646,1.075,11.254,5.732,14.636c2.569,1.866,5.55,2.811,8.55,2.811c2.439,0,4.889-0.624,7.14-1.884l42.662-23.879
			l42.662,23.879c5.023,2.812,11.034,2.457,15.691-0.926c4.657-3.383,6.853-8.992,5.731-14.637l-9.528-47.953l35.895-33.195
			C350.674,180.299,352.194,174.471,350.416,168.997z M296.282,208.62c-2.06,1.905-2.982,4.744-2.436,7.496l9.75,49.071
			l-43.658-24.437c-1.224-0.685-2.582-1.028-3.941-1.028c-1.359,0-2.716,0.342-3.941,1.028l-43.658,24.437l9.75-49.071
			c0.548-2.753-0.375-5.591-2.436-7.496L178.98,174.65l49.686-5.891c2.786-0.33,5.201-2.085,6.377-4.632l20.955-45.431
			l20.955,45.431c1.176,2.547,3.59,4.302,6.377,4.632l49.684,5.891L296.282,208.62z"/> </g> </g>                
    </symbol>
    <symbol id="icon_move-to-next" viewBox="0 0 46.02 46.02">
       <g> <g> <path d="M14.757,46.02c-1.412,0-2.825-0.521-3.929-1.569c-2.282-2.17-2.373-5.78-0.204-8.063l12.758-13.418L10.637,9.645
			C8.46,7.37,8.54,3.76,10.816,1.582c2.277-2.178,5.886-2.097,8.063,0.179l16.505,17.253c2.104,2.2,2.108,5.665,0.013,7.872
			L18.893,44.247C17.77,45.424,16.267,46.02,14.757,46.02z"/> </g> </g>                
    </symbol>
    <symbol id="icon_next" viewBox="0 0 240.823 240.823">
       <g> <path id="Chevron_Right_1_" d="M183.189,111.816L74.892,3.555c-4.752-4.74-12.451-4.74-17.215,0c-4.752,4.74-4.752,12.439,0,17.179
		l99.707,99.671l-99.695,99.671c-4.752,4.74-4.752,12.439,0,17.191c4.752,4.74,12.463,4.74,17.215,0l108.297-108.261
		C187.881,124.315,187.881,116.495,183.189,111.816z"/>       </g>                
    </symbol>
    <symbol id="icon_operator" viewBox="0 0 512 512">
       <g transform="translate(0 1)"> <g> <path d="M486.4,423.96c-50.93-27.008-89.996-42.152-124.772-47.958l3.599-4.948c1.707-1.707,2.56-4.267,1.707-6.827l-7.997-31.987
			c2.898-4.097,5.632-8.333,8.193-12.688c31.8-10.823,47.881-29.118,50.583-56.054c13.968-0.728,26.02-13.195,26.02-27.271v-64
			c0-14.012-11.147-26.429-25.75-27.26C416.104,95.671,394.368-1,256-1C117.629-1,95.895,95.675,94.016,144.97
			c-13.853,0.818-25.749,12.449-25.749,27.256v64c0,14.507,12.8,27.307,28.16,27.307h12.8c4.704,0,9.225-1.352,13.163-3.666
			c4.839,25.685,15.518,50.948,30.674,72.372l-7.997,31.987c0,1.707,0,4.267,1.707,6.827l3.599,4.948
			c-34.776,5.807-73.842,20.95-124.772,47.958C9.387,431.64,0,447.853,0,465.773v36.693C0,507.587,3.413,511,8.533,511h204.8h3.413
			h78.507h3.413h204.8c5.12,0,8.533-3.413,8.533-8.533v-36.693C512,448.707,501.76,432.493,486.4,423.96z M256.047,404.441
			l20.433,46.826h-41.245L256.047,404.441z M229.035,468.333h53.897l4.995,25.6h-64.013L229.035,468.333z M345.6,348.867
			l3.413,15.36l-8.717,11.969c-0.556,0.455-1.071,1.006-1.523,1.684l-35.495,49.147l-11.262,15.464l-23.005-51.761
			c28.058-3.422,53.044-17.722,73.077-38.212C343.272,351.324,344.444,350.111,345.6,348.867z M378.921,295.784
			c4.813-11.711,8.441-23.884,10.735-36.154c3.249,1.968,6.948,3.283,10.936,3.729C399.113,275.421,393.754,286.809,378.921,295.784
			z M425.813,171.373v64c0,5.12-4.267,10.24-10.24,10.24h-12.8c-5.12,0-10.24-4.267-10.24-10.24V229.4v-58.027
			c0-5.12,4.267-10.24,10.24-10.24h12.8C420.693,161.133,425.813,165.4,425.813,171.373z M256,16.067
			c52.597,0,141.118,17.17,144.924,128.992c-3.576,0.367-7.001,1.454-10.099,3.124C380.441,83.202,323.787,33.133,256,33.133
			c-67.778,0-124.426,50.055-134.821,115.022c-3.052-1.648-6.46-2.737-10.104-3.099C114.883,33.237,203.404,16.067,256,16.067z
			 M118.613,235.373c0,5.12-4.267,10.24-10.24,10.24h-12.8c-5.12,0-10.24-4.267-10.24-10.24v-64c0-5.12,4.267-10.24,10.24-10.24
			h12.8c5.12,0,10.24,4.267,10.24,10.24V235.373z M136.533,169.667C136.533,103.96,190.293,50.2,256,50.2
			s119.467,53.76,119.467,119.467V229.4c0,28.232-7.35,54.079-19.266,75.887c-20.368,5.908-49.669,9.446-91.667,9.446
			c-5.12,0-8.533,3.413-8.533,8.533s3.413,8.533,8.533,8.533c30.745,0,56.458-1.888,77.515-5.835
			c-0.523,0.523-1.046,1.046-1.569,1.569c-4.293,5.724-8.824,10.943-13.558,15.649c-20.093,18.719-44.058,30.058-67.152,31.181
			c-1.162-0.499-2.465-0.75-3.77-0.75c-1.312,0-2.494,0.257-3.554,0.761c-14.136-0.648-28.603-5.129-42.316-12.793
			c-13.893-7.982-26.962-19.489-38.61-34.048c-0.853-0.853-1.707-1.707-2.56-2.56l-0.498-0.166
			c-19.164-25.134-31.929-58.199-31.929-95.407V169.667z M242.988,390.73l-23.005,51.761l-11.262-15.464l-35.495-49.147
			c-0.272-0.272-0.572-0.541-0.884-0.806l-9.356-12.847l3.413-15.36c1.155,1.244,2.327,2.456,3.509,3.649
			C189.942,373.006,214.93,387.307,242.988,390.73z M17.067,465.773c0-11.093,5.973-21.333,16.213-26.453
			c54.393-28.896,93.548-43.399,128.428-47.731l50.922,70.018l-6.465,32.326H17.067V465.773z M494.933,493.933H305.835
			l-6.465-32.326l51.474-70.777c34.757,5.245,74.615,19.737,127.877,47.636c10.24,5.973,16.213,16.213,16.213,27.307V493.933z"/> </g> </g>                
    </symbol>
    <symbol id="icon_partners" viewBox="0 0 475.1 475.1">
       <g transform="translate(0 -540.36)"> <g> <g> <path d="M284.75,827.56l-34.2-43.4l46.2-14.6c4-1.2,6.2-5.4,5-9.4h0c-1.2-3.9-5.5-6.1-9.4-4.9l-47.3,14.9v-46.5
				c0-4.1-3.4-7.5-7.5-7.5c-4.1,0-7.5,3.4-7.5,7.5v46.3l-47.3-14.7c-4-1.2-8.2,1-9.4,4.9c-1.2,4,1,8.2,4.9,9.4l46.9,14.6l-35,43.4
				c-2.6,3.2-2.1,7.9,1.1,10.5c3.2,2.6,7.9,2.1,10.5-1.1l36-44.7l35.3,44.6c1.5,1.9,3.7,2.8,5.9,2.8c1.6,0,3.3-0.5,4.6-1.6
				C286.75,835.46,287.35,830.76,284.75,827.56z"/> <path d="M183.85,938.36c-4.1,0-7.5,3.4-7.5,7.5v54.6H71.85v-54.6c0-4.1-3.4-7.5-7.5-7.5c-4.1,0-7.5,3.4-7.5,7.5v62.1
				c0,4.1,3.4,7.5,7.5,7.5h119.5c4.1,0,7.5-3.4,7.5-7.5v-62.1C191.35,941.76,187.95,938.36,183.85,938.36z"/> <path d="M93.35,912.56c0,17,13.8,30.8,30.8,30.8c17.2,0,30.7-13.6,30.8-30.8c0-17.3-13.5-30.8-30.8-30.8
				C107.15,881.76,93.35,895.56,93.35,912.56z M139.95,912.56c0,9-6.8,15.8-15.8,15.8c-8.7,0-15.8-7.1-15.8-15.8s7.1-15.8,15.8-15.8
				C133.05,896.76,139.95,903.56,139.95,912.56z"/> <path d="M410.75,938.36c-4.1,0-7.5,3.4-7.5,7.5v54.6h-103.7v-54.6c0-4.1-3.4-7.5-7.5-7.5c-4.1,0-7.5,3.4-7.5,7.5v62.1
				c0,4.1,3.4,7.5,7.5,7.5h118.7c4.1,0,7.5-3.4,7.5-7.5v-62.1C418.25,941.76,414.85,938.36,410.75,938.36z"/> <path d="M352.15,943.36c16.8,0,30-13.6,30-30.8c0-17.3-13.2-30.8-30-30.8c-17.6,0-31.5,13.5-31.5,30.8
				S334.45,943.36,352.15,943.36z M352.15,896.76c8.4,0,15,6.9,15,15.8c0,8.9-6.6,15.8-15,15.8c-9.2,0-16.5-7-16.5-15.8
				C335.65,903.66,342.85,896.76,352.15,896.76z"/> <path d="M133.75,837.26v-62.1c0-4.1-3.4-7.5-7.5-7.5c-4.1,0-7.5,3.4-7.5,7.5v54.6H15.05v-54.6c0-4.1-3.4-7.5-7.5-7.5
				s-7.5,3.4-7.5,7.5v62.1c0,4.1,3.4,7.5,7.5,7.5h118.7C130.35,844.76,133.75,841.46,133.75,837.26z"/> <path d="M67.25,772.66c17,0,30.8-13.8,30.8-30.8s-13.8-30.8-30.8-30.8c-17.3,0-30.8,13.5-30.8,30.8S49.95,772.66,67.25,772.66z
				 M67.25,726.16c8.7,0,15.8,7,15.8,15.8c0,8.7-7.1,15.8-15.8,15.8c-9,0-15.8-6.8-15.8-15.8S58.25,726.16,67.25,726.16z"/> <path d="M178.25,674.16h118.6c4.2,0,7.5-3.4,7.6-7.5v-62.1c0-4.1-3.4-7.5-7.5-7.5c-4.1,0-7.5,3.4-7.5,7.5v54.6h-103.7v-54.6
				c0-4.1-3.4-7.5-7.5-7.5c-4.1,0-7.5,3.4-7.5,7.5v62.1C170.75,670.76,174.15,674.16,178.25,674.16z"/> <path d="M237.55,601.96c17,0,30.8-13.8,30.8-30.8s-13.8-30.8-30.8-30.8c-17.3,0-30.8,13.5-30.8,30.8S220.25,601.96,237.55,601.96
				z M237.55,555.46c8.7,0,15.8,7.1,15.8,15.8s-7.1,15.8-15.8,15.8c-9,0-15.8-6.8-15.8-15.8S228.55,555.46,237.55,555.46z"/> <path d="M467.55,767.66c-4.1,0-7.5,3.4-7.5,7.5v54.6h-103.7v-54.6c0-4.1-3.4-7.5-7.5-7.5c-4.1,0-7.5,3.4-7.5,7.5v62.1
				c0,4.1,3.4,7.5,7.5,7.5h118.7c4.1,0,7.5-3.3,7.5-7.5v-62.1C475.05,771.06,471.65,767.66,467.55,767.66z"/> <path d="M408.55,772.66c17,0,30.8-13.8,30.8-30.8s-13.8-30.8-30.8-30.8c-17.3,0-30.8,13.5-30.8,30.8S391.25,772.66,408.55,772.66
				z M408.55,726.16c8.7,0,15.8,7,15.8,15.8c0,8.7-7.1,15.8-15.8,15.8c-9,0-15.8-6.8-15.8-15.8S399.55,726.16,408.55,726.16z"/> </g> </g> </g>                
    </symbol>
    <symbol id="icon_sand-clock" viewBox="0 0 377.2 377.2">
       <g> <g> <path d="M310.4,362h-27.2v-5.2v-65.2v-9.2c0-22-7.6-42.4-20.4-58.8c-12-14.8-28.4-26.4-46.8-32v-6c18.8-5.6,35.2-17.2,46.8-32
			c12.8-16,20.4-36.8,20.4-58.8V15.6h27.2c4,0,7.6-3.2,7.6-7.6c0-4-3.2-7.6-7.6-7.6h-32.8c-0.4,0-1.2-0.4-1.6-0.4H101.6
			c0,0,0,0-0.4,0H66.8c-4,0-7.6,3.2-7.6,7.6c0,4,3.2,7.6,7.6,7.6H94v79.6c0,22,7.6,42.4,20.4,58.8c12,14.8,28.4,26.4,46.8,32v6
			c-18.4,6-34.8,17.2-46.8,32c-12.8,16-20.4,36.8-20.4,58.8v55.2V362H66.8c-4,0-7.6,3.2-7.6,7.6c0,4,3.2,7.6,7.6,7.6H100
			c0.4,0,1.2,0,1.6,0H276h34.4c4,0,7.6-3.2,7.6-7.6C318,365.6,314.8,362,310.4,362z M109.2,282.4c0-18.8,6.4-36,17.2-49.6
			c10.8-14,26.4-24,44-28c3.6-0.8,6-3.6,6-7.2V180c0-3.6-2.4-6.4-6-7.2c-17.6-4-33.2-14.4-44.4-28.4c-10.8-13.6-17.2-30.8-17.2-49.6
			V15.2h20h139.6v79.6c0,18.8-6.4,36-17.2,49.6c-10.8,14-26.4,24-44,28c-3.6,0.8-6,3.6-6,7.2v17.6c0,3.6,2.4,6.4,6,7.2
			c17.6,4,33.2,14.4,44.4,28.4c8,10.4,14,22.8,16,36.4c-4-3.6-8.4-6.8-13.2-9.6c-11.2-6.4-24.4-10.4-38.4-10.4
			c-21.2,0-40.4,8.8-54.4,22.4c-12.8,12.8-21.2,30-22.4,49.2c-4-1.2-8.4-2-12.8-2c-6,0-11.6,1.2-16.4,3.6c-0.4,0-0.8,0.4-0.8,0.4
			V282.4z M268.4,358v5.2h-41.6L109.2,362v-21.2c2-1.6,4.4-3.2,6.8-4.4c3.2-1.2,6.8-2,10.8-2c2.8,0,5.6,0.4,8.4,1.2s5.2,2.4,7.6,4
			c1.6,1.2,3.2,1.6,5.2,1.6c4-0.4,7.2-4,6.8-8c0-1.2,0-2-0.4-3.2c0-0.8,0-2,0-3.2c0-17.2,6.8-32.4,18-43.6
			c11.2-11.2,26.8-18,43.6-18c11.2,0,22,3.2,30.8,8.4s16.4,12.4,21.6,21.2V358z"/> </g> </g>                
    </symbol></svg>