<?xml version="1.0" encoding="utf-8"?>
<!-- Generator: Adobe Illustrator 21.0.0, SVG Export Plug-In . SVG Version: 6.00 Build 0)  -->
<svg version="1.1" id="Слой_1" xmlns="http://www.w3.org/2000/svg" xmlns:xlink="http://www.w3.org/1999/xlink" x="0px" y="0px"
	 viewBox="0 0 1190.6 841.9" style="enable-background:new 0 0 1190.6 841.9;" xml:space="preserve">
<style type="text/css">
	.st0{fill:#E9D689;}
</style>
<path class="st0" d="M1575.9,243.3c-4.8,1.7-8.4,5.3-12.5,8c-32.7,22-67.4,40.2-103.3,56.5c-29.4,13.3-59.5,25-90,35.7
	c-28.2,9.9-56.9,18.5-85.6,26.8c-26,7.5-52.2,13.9-78.4,20.3c-11.9,2.9-23.8,5.3-35.8,7.8c-18.9,3.9-37.8,8.1-56.8,11.4
	c-15.4,2.7-30.9,5.3-46.3,7.9c-13,2.2-26.2,3.6-39.2,6.1c-13.8,2.7-27.9,3.7-41.8,5.5c-11.5,1.4-23,2.9-34.5,4.2
	c-8.5,1-17.1,1.9-25.6,2.8c-12.2,1.3-24.3,3.2-36.6,3.7c-13.1,0.6-26.1,2.5-39.2,3.4c-16,1.1-32.1,1.3-48.1,3.5
	c-6.1,0.8-12.3,0.7-18.4,1.1c-12.6,0.9-25.3,0.7-37.9,1.3c-59.3,3-118.5,1.6-177.8,2c-21.2,0.2-42.3-1-63.4-1.3
	c-19.8-0.3-39.5-1.7-59.3-2.8c-16.9-0.9-33.8-1.8-50.7-3.1c-17.5-1.3-35-3.6-52.5-4.7c-18.2-1.2-36.3-3.8-54.4-5.4
	c-16.2-1.4-32.2-4.2-48.3-6.4c-15.9-2.1-31.9-4.1-47.8-6.5c-16.7-2.5-33.4-5.2-50.1-8.2c-27.4-5.1-54.8-10.1-82.1-15.9
	c-23.5-5-47-10.6-70.3-16.6c-28.7-7.3-57.1-15.3-85.4-24.1c-38.6-12-76.6-25.7-113.8-41.7c-46.2-19.8-90.3-43.4-131.2-72.7
	c-0.9-0.7-2-1.2-3-1.7c0-4,0-8,0-12c9.2,4.9,17.3,11.6,26.1,17.2c42.3,27.2,87.3,49.1,134,67.6c52.4,20.8,106,37.8,160.5,52
	c53.7,14.1,108,25.2,162.6,35c42,7.5,84.1,13.6,126.4,18.8c34.5,4.2,69.2,7.5,103.8,10.6c104.5,9.3,209.3,10.8,314.1,9.5
	c41.1-0.5,82.3-2.2,123.3-4.9c22.2-1.4,44.5-3,66.7-5c29-2.7,57.9-5.6,86.8-8.9c33.3-3.8,66.6-8.3,99.7-13.7
	c28.6-4.7,57.2-9.7,85.7-15.2c35.8-6.9,71.3-15.1,106.5-24.4c72.2-19,143.1-41.7,211.2-72.7c38.1-17.4,75-37,109.2-61.4
	c1-0.7,1.8-2.1,3.4-1.6C1575.9,235.3,1575.9,239.3,1575.9,243.3z"/>
<path class="st0" d="M-178.8,645.8"/>
</svg>
